<svg width="35" height="29" viewBox="0 0 35 29" fill="none" xmlns="http://www.w3.org/2000/svg">
<path d="M15.7296 17.3019C11.115 17.3796 9.31175 19.6514 5.45878 18.2572C4.84835 18.035 1.393 16.7075 0.323356 13.4804C-1.10471 9.1536 2.91627 4.87673 3.21308 4.57124C8.48851 -0.883149 18.569 0.488781 24.7124 3.29929C27.1765 4.42683 34.6137 7.8261 34.9833 14.1192C35.1457 16.9242 33.9416 20.8789 31.1303 22.0786C26.8405 23.906 23.7492 17.1741 15.724 17.3019H15.7296Z" fill="url(#paint0_linear_1_1337)"/>
<path d="M17.2026 19.3459C16.2169 19.1959 13.932 18.9571 11.3335 19.8235C9.80463 20.329 8.24216 20.8455 7.83334 22.1119C7.26772 23.8393 9.183 25.9611 10.7343 26.9553C11.8991 27.6996 13.1256 27.8607 15.5281 28.144C19.1066 28.5661 20.8931 28.7772 22.478 27.8052C23.71 27.0442 25.2501 25.3946 25.0373 23.706C24.6229 20.4623 17.9978 19.4681 17.2081 19.3514L17.2026 19.3459Z" fill="url(#paint1_linear_1_1337)"/>
<defs>
<linearGradient id="paint0_linear_1_1337" x1="29.0974" y1="9.07583" x2="4.8975" y2="16.2993" gradientUnits="userSpaceOnUse">
<stop stop-color="#D67BB2"/>
<stop offset="0.5" stop-color="#688AC6"/>
<stop offset="1" stop-color="#61CCF0"/>
</linearGradient>
<linearGradient id="paint1_linear_1_1337" x1="10.9135" y1="21.5232" x2="23.141" y2="26.806" gradientUnits="userSpaceOnUse">
<stop stop-color="#D67BB2"/>
<stop offset="0.5" stop-color="#688AC6"/>
<stop offset="1" stop-color="#61CCF0"/>
</linearGradient>
</defs>
</svg>
