<svg width="53" height="23" viewBox="0 0 53 23" fill="none" xmlns="http://www.w3.org/2000/svg">
<path d="M14.511 11.5818C14.5012 9.90642 15.259 8.64373 16.7894 7.71269C15.9335 6.4844 14.6386 5.80884 12.9316 5.67864C11.3154 5.5509 9.5472 6.62196 8.89974 6.62196C8.2155 6.62196 6.65081 5.72286 5.41967 5.72286C2.8789 5.76216 0.178711 7.75199 0.178711 11.8004C0.178711 12.9968 0.396982 14.2325 0.833524 15.505C1.41721 17.1804 3.52145 21.2853 5.71642 21.219C6.86418 21.192 7.67595 20.4034 9.16951 20.4034C10.6189 20.4034 11.3694 21.219 12.6496 21.219C14.8642 21.187 16.7673 17.4555 17.3216 15.7752C14.3516 14.3725 14.511 11.6678 14.511 11.5818ZM11.9335 4.08923C13.1769 2.61037 13.0641 1.26416 13.0273 0.780212C11.9286 0.844084 10.6582 1.52947 9.93469 2.37208C9.13763 3.2761 8.66921 4.39384 8.76976 5.65407C9.95676 5.74497 11.0408 5.13328 11.9335 4.08923Z" fill="white"/>
<path d="M23.7595 18.5V5.40909H28.4257C29.4442 5.40909 30.2879 5.59446 30.9569 5.9652C31.626 6.33594 32.1267 6.84304 32.4591 7.48651C32.7915 8.12571 32.9577 8.84588 32.9577 9.64702C32.9577 10.4524 32.7893 11.1768 32.4527 11.8203C32.1203 12.4595 31.6175 12.9666 30.9442 13.3416C30.2751 13.7124 29.4335 13.8977 28.4193 13.8977H25.2105V12.223H28.2403C28.8838 12.223 29.4058 12.1122 29.8064 11.8906C30.2069 11.6648 30.501 11.358 30.6885 10.9702C30.876 10.5824 30.9697 10.1413 30.9697 9.64702C30.9697 9.1527 30.876 8.71378 30.6885 8.33026C30.501 7.94673 30.2048 7.64631 29.8 7.42898C29.3994 7.21165 28.871 7.10298 28.2148 7.10298H25.7346V18.5H23.7595ZM37.4891 18.7173C36.867 18.7173 36.3045 18.6023 35.8016 18.3722C35.2988 18.1378 34.9003 17.799 34.6063 17.3558C34.3165 16.9126 34.1716 16.3693 34.1716 15.7259C34.1716 15.1719 34.2782 14.7159 34.4912 14.358C34.7043 14 34.992 13.7166 35.3542 13.5078C35.7164 13.299 36.1212 13.1413 36.5687 13.0348C37.0161 12.9283 37.4721 12.8473 37.9366 12.7919C38.5246 12.7237 39.0019 12.6683 39.3684 12.6257C39.7349 12.5788 40.0012 12.5043 40.1674 12.402C40.3336 12.2997 40.4167 12.1335 40.4167 11.9034V11.8587C40.4167 11.3004 40.259 10.8679 39.9437 10.5611C39.6326 10.2543 39.1681 10.1009 38.5502 10.1009C37.9067 10.1009 37.3996 10.2436 37.0289 10.5291C36.6624 10.8104 36.4089 11.1236 36.2682 11.4688L34.4721 11.0597C34.6851 10.4631 34.9962 9.98153 35.4053 9.61506C35.8187 9.24432 36.2938 8.97585 36.8307 8.80966C37.3677 8.6392 37.9323 8.55398 38.5246 8.55398C38.9167 8.55398 39.3322 8.60085 39.7711 8.6946C40.2143 8.78409 40.6276 8.95028 41.0111 9.19318C41.3989 9.43608 41.7164 9.78338 41.9635 10.2351C42.2107 10.6825 42.3343 11.2642 42.3343 11.9801V18.5H40.4678V17.1577H40.3911C40.2675 17.4048 40.0822 17.6477 39.835 17.8864C39.5878 18.125 39.2704 18.3232 38.8826 18.4808C38.4948 18.6385 38.0303 18.7173 37.4891 18.7173ZM37.9046 17.1832C38.433 17.1832 38.8847 17.0788 39.2597 16.87C39.639 16.6612 39.9266 16.3885 40.1226 16.0518C40.3229 15.7109 40.4231 15.3466 40.4231 14.9588V13.6932C40.3549 13.7614 40.2228 13.8253 40.0268 13.8849C39.835 13.9403 39.6155 13.9893 39.3684 14.032C39.1212 14.0703 38.8805 14.1065 38.6461 14.1406C38.4117 14.1705 38.2157 14.196 38.058 14.2173C37.6873 14.2642 37.3485 14.343 37.0417 14.4538C36.7391 14.5646 36.4962 14.7244 36.313 14.9332C36.134 15.1378 36.0445 15.4105 36.0445 15.7514C36.0445 16.2244 36.2192 16.5824 36.5687 16.8253C36.9181 17.0639 37.3634 17.1832 37.9046 17.1832ZM45.3365 22.1818C45.0509 22.1818 44.791 22.1584 44.5566 22.1115C44.3222 22.0689 44.1475 22.022 44.0325 21.9709L44.4927 20.4048C44.8421 20.4986 45.1532 20.5391 45.4259 20.5263C45.6987 20.5135 45.9394 20.4112 46.1482 20.2195C46.3613 20.0277 46.5488 19.7145 46.7107 19.2798L46.9472 18.6278L43.3549 8.68182H45.4004L47.8869 16.3011H47.9892L50.4757 8.68182H52.5275L48.4813 19.8104C48.2938 20.3217 48.0552 20.7543 47.7654 21.108C47.4757 21.4659 47.1305 21.7344 46.7299 21.9134C46.3294 22.0923 45.8649 22.1818 45.3365 22.1818Z" fill="white"/>
</svg>
