<svg width="790" height="90" viewBox="0 0 790 90" fill="none" xmlns="http://www.w3.org/2000/svg">
<path d="M170.839 83.6575C86.7974 83.6575 29.6261 28.9206 0 46.9008V1.14062H789.994V40.0432C730.2 40.0432 714.561 89.1436 618.282 89.1436C544.215 89.1436 511.691 43.3349 393.482 43.3349C275.272 43.3349 254.881 83.6575 170.839 83.6575Z" fill="url(#paint0_linear_2079_104)"/>
<path d="M170.845 72.9062C86.8037 72.9062 70.5465 25.9503 0.00656919 25.9503L0 0.959285L789.992 0.90625L790 25.9503C730.206 25.9503 711.275 63.3618 608.69 63.3618C543.128 63.3618 511.697 33.2173 393.487 33.2173C275.278 33.2173 254.887 72.9062 170.845 72.9062Z" fill="white"/>
<defs>
<linearGradient id="paint0_linear_2079_104" x1="53.6067" y1="45.7988" x2="719.327" y2="234.182" gradientUnits="userSpaceOnUse">
<stop stop-color="#F276D3"/>
<stop offset="0.3" stop-color="#5A91FF"/>
<stop offset="0.835" stop-color="#3EF8FF"/>
</linearGradient>
</defs>
</svg>
