<svg width="14" height="12" viewBox="0 0 14 12" fill="none" xmlns="http://www.w3.org/2000/svg">
<path d="M6.72187 0.239952C6.82298 -0.0100816 7.17698 -0.0100816 7.2781 0.239952L8.74836 3.87548C8.79133 3.98174 8.89111 4.05423 9.00545 4.06227L12.9174 4.33712C13.1864 4.35603 13.2958 4.6927 13.0893 4.86614L10.086 7.38787C9.99822 7.46158 9.96011 7.57887 9.9878 7.6901L10.9353 11.4955C11.0004 11.7572 10.714 11.9653 10.4852 11.8224L7.15888 9.74544C7.06165 9.68473 6.93832 9.68473 6.84109 9.74544L3.51472 11.8224C3.28595 11.9653 2.99956 11.7572 3.06472 11.4955L4.01217 7.6901C4.03986 7.57887 4.00175 7.46158 3.91396 7.38787L0.910708 4.86613C0.704158 4.6927 0.813551 4.35603 1.08259 4.33712L4.99452 4.06227C5.10886 4.05423 5.20864 3.98174 5.25161 3.87548L6.72187 0.239952Z" fill="#FBBA00"/>
</svg>
