<svg width="48" height="48" viewBox="0 0 48 48" fill="none" xmlns="http://www.w3.org/2000/svg">
<path d="M24 38.16C23.8752 38.16 23.7408 38.1216 23.6256 38.0544C17.5584 34.3968 11.664 34.3968 5.58721 38.0544C5.36641 38.1888 5.08801 38.1888 4.85761 38.064C4.64641 37.9392 4.50241 37.6992 4.50241 37.44V8.39037C4.50241 8.12157 4.65601 7.87197 4.88641 7.74717C11.3376 4.38717 17.8752 4.38717 24.3264 7.74717C24.5664 7.87197 24.7104 8.12157 24.7104 8.39037V37.44C24.7104 37.6992 24.5664 37.9392 24.3456 38.064C24.24 38.1312 24.1248 38.16 24 38.16ZM14.6112 33.8976C17.5104 33.8976 20.4 34.6656 23.28 36.2016V8.83197C17.5296 5.96157 11.7024 5.96157 5.94241 8.83197V36.2112C8.82241 34.6656 11.7216 33.8976 14.6112 33.8976Z" fill="#F175B9"/>
<path fill-rule="evenodd" clip-rule="evenodd" d="M23.8407 38.1408C23.8941 38.1535 23.948 38.1602 24.0002 38.1602C24.125 38.1602 24.2594 38.1314 24.365 38.0546C27.016 36.4564 29.6359 35.5566 32.2519 35.355C35.622 35.0959 38.9857 35.9958 42.401 38.0548C42.5162 38.122 42.6506 38.1604 42.7754 38.1604C42.8659 38.1604 42.9513 38.1453 43.028 38.1114C43.0638 38.0984 43.0989 38.0827 43.133 38.0642C43.3538 37.9394 43.4978 37.6994 43.4978 37.4402V10.5508H44.3893C45.0517 10.5508 45.5989 11.0884 45.5989 11.7604V39.898C45.5989 40.426 45.3205 40.8868 44.8693 41.146C44.4085 41.4052 43.8709 41.3956 43.4197 41.1268L41.3173 39.8596C35.9029 36.5956 30.8725 36.5956 25.4581 39.8596L23.9989 40.7428L22.5397 39.8596C17.1253 36.5956 12.0949 36.5956 6.68046 39.8596L4.57806 41.1268C4.12686 41.3956 3.58926 41.4052 3.12846 41.146C2.66766 40.8868 2.39886 40.426 2.39886 39.898V11.7604C2.39886 11.098 2.93646 10.5508 3.60846 10.5508H4.50261V37.4402C4.50261 37.6994 4.64661 37.9394 4.85781 38.0642C5.08821 38.189 5.36661 38.189 5.58741 38.0546C11.6341 34.4151 17.5001 34.3971 23.5356 38.0005C23.5658 38.0242 23.5983 38.0456 23.633 38.0644C23.6991 38.1002 23.7692 38.1257 23.8407 38.1408ZM43.4978 9.11079V8.38101C43.4978 8.11221 43.3538 7.86261 43.1138 7.73781C36.7682 4.43541 30.3458 4.37781 24.0002 7.56501C17.6546 4.37781 11.2226 4.43541 4.88661 7.73781C4.65621 7.86261 4.50261 8.11221 4.50261 8.38101V9.11079H3.60846C2.14926 9.11079 0.958862 10.3012 0.958862 11.7604V39.898C0.958862 40.954 1.50606 41.8852 2.42766 42.4036C3.33966 42.922 4.42446 42.9124 5.32686 42.3652L7.42926 41.098C12.3733 38.1124 16.8469 38.1124 21.8005 41.098L23.6341 42.202C23.8549 42.3364 24.1429 42.3364 24.3733 42.202L26.2069 41.098C31.1509 38.1124 35.6245 38.1124 40.5781 41.098L42.6805 42.3652C43.1413 42.6436 43.6501 42.778 44.1589 42.778C44.6485 42.778 45.1381 42.6532 45.5797 42.4036C46.4917 41.8852 47.0389 40.9444 47.0389 39.898V11.7604C47.0389 10.3012 45.8485 9.11079 44.3893 9.11079H43.4978ZM23.2682 8.81795C17.5152 5.9603 11.6923 5.96185 5.94261 8.82261V36.2018C8.82261 34.6658 11.7218 33.8978 14.6114 33.8978C17.5052 33.8978 20.3908 34.6646 23.2682 36.1982V8.81795ZM42.0554 36.2005C36.2957 33.1326 30.474 33.1256 24.7178 36.2049V8.83239C27.5337 7.42681 30.368 6.70951 33.2038 6.6805C33.1493 6.78151 33.1182 6.89651 33.1182 7.0179V20.0451C33.1182 20.3235 33.2814 20.5827 33.5406 20.6979C33.7998 20.8131 34.107 20.7747 34.3182 20.5827L37.083 18.1251L39.8478 20.5827C39.9822 20.6979 40.155 20.7651 40.3278 20.7651C40.4238 20.7651 40.5294 20.7459 40.6254 20.6979C40.8846 20.5827 41.0478 20.3235 41.0478 20.0451V8.35984C41.3839 8.50761 41.7198 8.66512 42.0554 8.83239V36.2005ZM34.4899 6.71454C36.1975 6.82238 37.9047 7.17978 39.6078 7.78673V18.4515L37.563 16.6371C37.2846 16.3971 36.8718 16.3971 36.603 16.6371L34.5582 18.4515V7.0179C34.5582 6.90994 34.5337 6.80704 34.4899 6.71454ZM10.9151 24.2593C10.9151 25.4497 11.8847 26.4193 13.0751 26.4193C14.2655 26.4193 15.2351 25.4497 15.2639 24.2593V22.2625C15.8207 22.2337 16.3775 22.1377 16.9247 21.9649C18.5375 21.4465 19.8431 20.3425 20.6207 18.8449C21.3887 17.3473 21.5327 15.6385 21.0239 14.0353C20.5055 12.4225 19.4015 11.1169 17.9039 10.3393C16.4063 9.57131 14.6975 9.42731 13.0847 9.93611C11.4719 10.4545 10.1663 11.5585 9.38866 13.0561C9.11986 13.5745 9.07186 14.1601 9.24466 14.7073C9.41746 15.2545 9.80146 15.7057 10.3103 15.9649C10.8191 16.2337 11.4047 16.2817 11.9519 16.1089C12.4991 15.9361 12.9503 15.5617 13.2191 15.0433C13.4591 14.5633 13.8719 14.2177 14.3807 14.0545C14.8991 13.8913 15.4367 13.9297 15.9071 14.1793C16.3775 14.4193 16.7231 14.8321 16.8863 15.3409C17.0495 15.8401 17.0015 16.3873 16.7615 16.8577C16.5119 17.3377 16.0991 17.6833 15.5903 17.8465C15.0815 18.0097 14.5439 17.9617 14.0735 17.7217C13.4015 17.3761 12.5951 17.4049 11.9519 17.7985C11.3087 18.1921 10.9151 18.8929 10.9151 19.6417V24.2593ZM12.7007 19.0273C12.8159 18.9601 12.9407 18.9217 13.0751 18.9217C13.1903 18.9217 13.3055 18.9505 13.4015 19.0081C14.2175 19.4305 15.1487 19.5073 16.0223 19.2289C16.8959 18.9505 17.6063 18.3457 18.0287 17.5297C18.4511 16.7137 18.5279 15.7825 18.2495 14.9089C17.9615 14.0353 17.3663 13.3249 16.5503 12.9025C15.7343 12.4801 14.8031 12.4033 13.9295 12.6817C13.0559 12.9601 12.3455 13.5649 11.9231 14.3809C11.8367 14.5537 11.6831 14.6785 11.5007 14.7361C11.3183 14.7937 11.1263 14.7745 10.9535 14.6881C10.7807 14.6017 10.6559 14.4481 10.5983 14.2657C10.5407 14.0833 10.5599 13.8913 10.6463 13.7185C11.2415 12.5569 12.2591 11.7025 13.4975 11.3089C14.7359 10.9153 16.0607 11.0305 17.2127 11.6257C18.3743 12.2209 19.2287 13.2385 19.6223 14.4769C20.0159 15.7153 19.9007 17.0305 19.3055 18.1921C18.7103 19.3537 17.6927 20.2081 16.4543 20.6017C15.8399 20.8033 15.1967 20.8801 14.5727 20.8225C14.3711 20.8033 14.1695 20.8705 14.0255 21.0049C13.8815 21.1393 13.7951 21.3313 13.7951 21.5329V24.2593C13.7951 24.6529 13.4687 24.9793 13.0751 24.9793C12.6815 24.9793 12.3551 24.6529 12.3551 24.2593V19.6417C12.3551 19.3921 12.4895 19.1617 12.7007 19.0273ZM12.8641 32.736C11.3473 32.736 10.1089 31.4976 10.1089 29.9808C10.1089 28.464 11.3473 27.2256 12.8641 27.2256C14.3809 27.2256 15.6193 28.464 15.6193 29.9808C15.6193 31.4976 14.3905 32.736 12.8641 32.736ZM12.8641 28.6656C12.1345 28.6656 11.5489 29.2512 11.5489 29.9808C11.5489 30.7104 12.1345 31.296 12.8641 31.296C13.5937 31.296 14.1793 30.7104 14.1793 29.9808C14.1793 29.2512 13.5937 28.6656 12.8641 28.6656ZM30.1914 24.7203H40.0794C40.473 24.7203 40.7994 24.3939 40.7994 24.0003C40.7994 23.6067 40.473 23.2803 40.0794 23.2803H30.1914C29.7978 23.2803 29.4714 23.6067 29.4714 24.0003C29.4714 24.3939 29.7978 24.7203 30.1914 24.7203ZM27.888 24.7203H26.6976C26.304 24.7203 25.9776 24.3939 25.9776 24.0003C25.9776 23.6067 26.304 23.2803 26.6976 23.2803H27.888C28.2816 23.2803 28.608 23.6067 28.608 24.0003C28.608 24.3939 28.2912 24.7203 27.888 24.7203ZM30.1914 28.3492H40.0794C40.473 28.3492 40.7994 28.0228 40.7994 27.6292C40.7994 27.2356 40.473 26.9092 40.0794 26.9092H30.1914C29.7978 26.9092 29.4714 27.2356 29.4714 27.6292C29.4714 28.0228 29.7978 28.3492 30.1914 28.3492ZM27.888 28.3492H26.6976C26.304 28.3492 25.9776 28.0228 25.9776 27.6292C25.9776 27.2356 26.304 26.9092 26.6976 26.9092H27.888C28.2816 26.9092 28.608 27.2356 28.608 27.6292C28.608 28.0228 28.2912 28.3492 27.888 28.3492ZM30.1914 31.9777H40.0794C40.473 31.9777 40.7994 31.6513 40.7994 31.2577C40.7994 30.8641 40.473 30.5377 40.0794 30.5377H30.1914C29.7978 30.5377 29.4714 30.8641 29.4714 31.2577C29.4714 31.6513 29.7978 31.9777 30.1914 31.9777ZM27.888 31.9777H26.6976C26.304 31.9777 25.9776 31.6513 25.9776 31.2577C25.9776 30.8641 26.304 30.5377 26.6976 30.5377H27.888C28.2816 30.5377 28.608 30.8641 28.608 31.2577C28.608 31.6513 28.2912 31.9777 27.888 31.9777ZM26.6976 11.7219H31.104C31.5072 11.7219 31.824 11.3955 31.824 11.0019C31.824 10.6083 31.4976 10.2819 31.104 10.2819H26.6976C26.304 10.2819 25.9776 10.6083 25.9776 11.0019C25.9776 11.3955 26.304 11.7219 26.6976 11.7219ZM31.104 15.0434H26.6976C26.304 15.0434 25.9776 14.717 25.9776 14.3234C25.9776 13.9298 26.304 13.6034 26.6976 13.6034H31.104C31.4976 13.6034 31.824 13.9298 31.824 14.3234C31.824 14.717 31.5072 15.0434 31.104 15.0434ZM26.6976 18.3649H31.104C31.5072 18.3649 31.824 18.0385 31.824 17.6449C31.824 17.2513 31.4976 16.9249 31.104 16.9249H26.6976C26.304 16.9249 25.9776 17.2513 25.9776 17.6449C25.9776 18.0385 26.304 18.3649 26.6976 18.3649Z" fill="#F175B9"/>
</svg>
