<svg width="48" height="48" viewBox="0 0 48 48" fill="none" xmlns="http://www.w3.org/2000/svg">
<g clip-path="url(#clip0_2004_350)">
<path d="M20.6449 25.8142L18.825 23.9987L20.6446 22.1835C22.2806 20.5529 23.5523 18.8048 24.4243 16.9878C24.4724 16.8878 24.4943 16.7771 24.488 16.6663C24.4816 16.5555 24.4473 16.4481 24.3882 16.3541C24.3291 16.2602 24.2471 16.1828 24.1499 16.1291C24.0528 16.0755 23.9436 16.0474 23.8326 16.0474H9.08869C8.97773 16.0474 8.86857 16.0755 8.77143 16.1291C8.67429 16.1828 8.59233 16.2602 8.53322 16.3541C8.47412 16.448 8.43978 16.5553 8.43344 16.6661C8.42709 16.7769 8.44894 16.8875 8.49694 16.9875C9.36881 18.8046 10.6407 20.5527 12.2763 22.1828L14.0942 23.9984L12.2764 25.8141C8.48559 29.5991 6.72788 33.8854 7.05206 38.554C7.06353 38.7198 7.1375 38.8751 7.25903 38.9885C7.38056 39.1019 7.54059 39.165 7.70681 39.1649H25.2144C25.3807 39.165 25.5407 39.1019 25.6623 38.9885C25.7838 38.8751 25.8578 38.7198 25.8693 38.554C26.1938 33.8857 24.4358 29.5993 20.6449 25.8142ZM24.5889 37.8523H8.33231C8.22516 33.8146 9.86222 30.0805 13.204 26.743L15.4868 24.4628C15.5479 24.4018 15.5963 24.3294 15.6294 24.2497C15.6624 24.17 15.6795 24.0846 15.6795 23.9983C15.6795 23.9121 15.6624 23.8266 15.6294 23.7469C15.5963 23.6672 15.5479 23.5949 15.4868 23.5339L13.2036 21.2533C12.0244 20.0967 11.0056 18.7873 10.1745 17.3599H22.7468C21.9157 18.7873 20.8968 20.0969 19.7176 21.2535L17.4321 23.5336C17.3709 23.5946 17.3224 23.667 17.2893 23.7468C17.2562 23.8265 17.2392 23.912 17.2392 23.9983C17.2392 24.0847 17.2562 24.1702 17.2893 24.2499C17.3224 24.3297 17.3709 24.4021 17.4321 24.4631L19.7174 26.7431C23.0592 30.0801 24.6961 33.8147 24.5889 37.8523ZM29.788 41.0731H28.7882C29.3795 37.8996 29.2007 34.8173 28.2512 31.905C27.332 29.085 25.6934 26.4282 23.3762 23.9987C25.7134 21.5483 27.3598 18.8667 28.2744 16.0194C29.2031 13.1281 29.3753 10.0713 28.7886 6.92421H29.7878C30.199 6.92421 30.6063 6.8432 30.9863 6.68581C31.3663 6.52842 31.7115 6.29772 32.0023 6.0069C32.2932 5.71607 32.5239 5.37082 32.6813 4.99084C32.8386 4.61086 32.9197 4.20359 32.9197 3.79231C32.9197 3.38102 32.8386 2.97376 32.6813 2.59378C32.5239 2.2138 32.2932 1.86854 32.0023 1.57771C31.7115 1.28689 31.3663 1.0562 30.9863 0.898803C30.6063 0.741409 30.199 0.6604 29.7878 0.6604H3.13059C2.29996 0.6604 1.50335 0.990368 0.916002 1.57771C0.328656 2.16506 -0.00131226 2.96167 -0.00131226 3.79231C-0.00131226 4.62294 0.328656 5.41955 0.916002 6.0069C1.50335 6.59425 2.29996 6.92421 3.13059 6.92421H4.1325C3.54263 10.0914 3.72 13.1671 4.66388 16.0742C5.58197 18.9011 7.22269 21.5643 9.54488 23.9991C7.23619 26.4197 5.60072 29.0672 4.67972 31.8764C3.72206 34.7975 3.54019 37.8898 4.13334 41.0733H3.13022C2.30219 41.0778 1.50963 41.4099 0.92572 41.9971C0.341813 42.5842 0.0140455 43.3785 0.0140455 44.2066C0.0140455 45.0346 0.341813 45.829 0.92572 46.4161C1.50963 47.0032 2.30219 47.3353 3.13022 47.3398H29.788C30.6161 47.3353 31.4086 47.0032 31.9925 46.4161C32.5764 45.829 32.9042 45.0346 32.9042 44.2066C32.9042 43.3785 32.5764 42.5842 31.9925 41.9971C31.4086 41.4099 30.6161 41.0778 29.788 41.0733V41.0731ZM1.3125 3.79099C1.31302 3.309 1.50475 2.8469 1.84561 2.50612C2.18646 2.16533 2.6486 1.9737 3.13059 1.97328H29.788C30.2705 1.97328 30.7331 2.16492 31.0743 2.50606C31.4154 2.84719 31.6071 3.30987 31.6071 3.79231C31.6071 4.27474 31.4154 4.73742 31.0743 5.07856C30.7331 5.41969 30.2705 5.61134 29.788 5.61134H3.13059C2.64825 5.61057 2.18592 5.41846 1.84506 5.07719C1.50421 4.73591 1.31267 4.27334 1.3125 3.79099ZM10.9261 24.4629C10.9872 24.4019 11.0356 24.3295 11.0687 24.2498C11.1018 24.1701 11.1188 24.0846 11.1188 23.9983C11.1188 23.912 11.1018 23.8266 11.0687 23.7469C11.0356 23.6672 10.9872 23.5948 10.9261 23.5338C6.07238 18.688 4.23863 13.1005 5.46975 6.92421H27.45C28.6835 13.0992 26.8507 18.6862 21.9948 23.5342C21.9337 23.5951 21.8852 23.6675 21.8522 23.7473C21.8191 23.827 21.8021 23.9124 21.8021 23.9987C21.8021 24.085 21.8191 24.1705 21.8522 24.2502C21.8852 24.3299 21.9337 24.4023 21.9948 24.4632C26.8488 29.3095 28.6826 34.8976 27.451 41.0731H5.46947C4.23844 34.8967 6.07313 29.3088 10.9265 24.4632L10.9261 24.4629ZM29.7877 46.0264H3.13059C2.65006 46.023 2.19038 45.8296 1.8518 45.4886C1.51323 45.1476 1.32322 44.6866 1.32322 44.206C1.32322 43.7255 1.51323 43.2644 1.8518 42.9234C2.19038 42.5824 2.65006 42.3891 3.13059 42.3856H29.788C30.2686 42.3891 30.7282 42.5824 31.0668 42.9234C31.4054 43.2644 31.5954 43.7255 31.5954 44.206C31.5954 44.6866 31.4054 45.1476 31.0668 45.4886C30.7282 45.8296 30.2686 46.023 29.788 46.0264H29.7877ZM38.3452 14.3438C36.4357 14.3438 34.5691 14.91 32.9814 15.9709C31.3937 17.0317 30.1562 18.5396 29.4254 20.3038C28.6947 22.0679 28.5035 24.0092 28.876 25.882C29.2485 27.7548 30.168 29.4752 31.5182 30.8254C32.8685 32.1756 34.5888 33.0952 36.4616 33.4677C38.3344 33.8403 40.2757 33.6491 42.0398 32.9184C43.804 32.1877 45.3119 30.9502 46.3728 29.3626C47.4337 27.7749 48 25.9082 48 23.9987C47.9972 21.439 46.9791 18.9849 45.1691 17.1748C43.3591 15.3648 40.905 14.3467 38.3452 14.3438ZM38.3452 32.3404C36.6954 32.3403 35.0826 31.851 33.7108 30.9343C32.3391 30.0177 31.2699 28.7148 30.6386 27.1905C30.0073 25.6662 29.8422 23.989 30.1641 22.3708C30.486 20.7527 31.2806 19.2663 32.4472 18.0997C33.6139 16.9331 35.1003 16.1387 36.7185 15.8169C38.3366 15.4951 40.0139 15.6603 41.5381 16.2917C43.0624 16.9231 44.3652 17.9924 45.2818 19.3642C46.1983 20.736 46.6875 22.3489 46.6875 23.9987C46.685 26.2104 45.8053 28.3308 44.2413 29.8947C42.6774 31.4586 40.557 32.3382 38.3452 32.3406V32.3404ZM41.9408 23.9985C41.9408 24.1726 41.8717 24.3395 41.7486 24.4626C41.6256 24.5856 41.4586 24.6548 41.2846 24.6548H38.3452C38.1712 24.6548 38.0043 24.5856 37.8812 24.4626C37.7581 24.3395 37.689 24.1726 37.689 23.9985V19.2684C37.689 19.0943 37.7581 18.9274 37.8812 18.8043C38.0043 18.6813 38.1712 18.6121 38.3452 18.6121C38.5193 18.6121 38.6862 18.6813 38.8093 18.8043C38.9324 18.9274 39.0015 19.0943 39.0015 19.2684V23.3423H41.2842C41.3704 23.3422 41.4558 23.3592 41.5355 23.3921C41.6152 23.4251 41.6876 23.4735 41.7486 23.5344C41.8095 23.5954 41.8579 23.6678 41.8909 23.7474C41.9239 23.8271 41.9409 23.9125 41.9408 23.9987V23.9985ZM38.3452 16.5816C36.878 16.5818 35.4438 17.0172 34.2239 17.8326C33.0041 18.648 32.0535 19.8067 31.4922 21.1624C30.931 22.5181 30.7843 24.0097 31.0708 25.4487C31.3573 26.8877 32.0641 28.2095 33.1018 29.2468C34.1395 30.2841 35.4615 30.9904 36.9006 31.2764C38.3397 31.5624 39.8313 31.4152 41.1868 30.8534C42.5422 30.2917 43.7007 29.3406 44.5156 28.1205C45.3306 26.9003 45.7654 25.466 45.7651 23.9987C45.7625 22.0319 44.9799 20.1464 43.5889 18.7559C42.1978 17.3654 40.3121 16.5834 38.3452 16.5816ZM38.3452 30.1057C37.1378 30.1054 35.9575 29.7471 34.9536 29.0761C33.9498 28.4052 33.1674 27.4516 32.7054 26.336C32.2435 25.2203 32.1227 23.9928 32.3583 22.8085C32.5939 21.6243 33.1754 20.5365 34.0292 19.6827C34.883 18.8289 35.9708 18.2474 37.1551 18.0118C38.3393 17.7761 39.5669 17.8969 40.6825 18.3589C41.7981 18.8208 42.7517 19.6032 43.4227 20.6071C44.0937 21.611 44.452 22.7912 44.4522 23.9987C44.4504 25.6178 43.8064 27.1701 42.6615 28.315C41.5166 29.4598 39.9644 30.1038 38.3452 30.1057Z" fill="#F175B9"/>
</g>
<defs>
<clipPath id="clip0_2004_350">
<rect width="48" height="48" fill="white"/>
</clipPath>
</defs>
</svg>
