<svg width="48" height="48" viewBox="0 0 48 48" fill="none" xmlns="http://www.w3.org/2000/svg">
<path fill-rule="evenodd" clip-rule="evenodd" d="M42.3749 1.40625H30.2556C29.3303 0.499499 28.11 0 26.8125 0C25.4747 0 24.2607 0.537186 23.3727 1.40625H11.25C9.31142 1.40625 7.73436 2.98331 7.73436 4.92187V36.7499H2.8125C2.42409 36.75 2.10938 37.0647 2.10938 37.4531C2.10947 38.8102 2.66128 40.0405 3.55265 40.9316C4.44384 41.8227 5.67449 42.3749 7.03124 42.375H7.73436V44.4843C7.73446 45.4233 8.10008 46.3062 8.76411 46.9703C9.42814 47.6343 10.311 47.9999 11.25 47.9999H42.3749C44.3135 47.9998 45.8905 46.4228 45.8906 44.4842V4.92187C45.8905 2.98331 44.3135 1.40643 42.3749 1.40625ZM10.5469 36.7499H9.14061V4.92187C9.14061 3.75881 10.0869 2.81249 11.25 2.81249H22.3665C22.1582 3.24974 22.0129 3.72243 21.9416 4.21865L11.25 4.21874C10.8617 4.21874 10.5469 4.53355 10.5469 4.92187V36.7499ZM22.5937 8.43748C22.9821 8.43748 23.2968 8.12267 23.2968 7.73436V4.92187C23.2968 2.9834 24.874 1.40625 26.8125 1.40625C27.7818 1.40625 28.6605 1.80037 29.2973 2.43703C29.9339 3.07359 30.3282 3.95259 30.3282 4.92168L30.3281 7.73417C30.3281 7.92073 30.4021 8.09952 30.534 8.23142C30.6659 8.36333 30.8447 8.43748 31.0312 8.43748H32.4374C33.354 8.43748 34.1362 9.0253 34.4263 9.84373H19.1987C19.4887 9.0253 20.2708 8.43748 21.1875 8.43748H22.5937ZM21.8907 5.62499V7.03124H21.1876C19.249 7.03124 17.6719 8.60839 17.6719 10.5469C17.6719 10.7411 17.7507 10.9169 17.8779 11.0441C18.0051 11.1713 18.1809 11.25 18.3751 11.2501H35.25C35.6384 11.25 35.9532 10.9353 35.9532 10.5469C35.953 8.6083 34.376 7.03133 32.4374 7.03124H31.7343L31.7344 5.62508L41.6719 5.62499V37.4531C41.6719 38.3921 41.3063 39.2749 40.6421 39.939C39.9781 40.603 39.0953 40.9688 38.1562 40.9687C36.2177 40.969 34.6407 39.3917 34.6406 37.4531C34.6406 37.0648 34.3258 36.75 33.9374 36.7499H11.9532V5.62499H21.8907ZM7.03133 40.9688C5.33334 40.9686 3.91284 39.7591 3.58631 38.1563H33.2844C33.4416 39.2506 33.9586 40.23 34.7149 40.9688H7.03133ZM44.4843 44.4843C44.4843 45.6474 43.5381 46.5937 42.3749 46.5937H11.25C10.6865 46.5937 10.1569 46.3744 9.75842 45.9759C9.35999 45.5775 9.14061 45.0478 9.14061 44.4844V42.375L38.1562 42.3749C39.4708 42.3749 40.7068 41.863 41.6366 40.9334C42.5663 40.0037 43.0781 38.7677 43.0781 37.4531V4.92187C43.078 4.7353 43.004 4.55652 42.8722 4.42462C42.7403 4.2928 42.5615 4.21874 42.3749 4.21865L31.6843 4.21874C31.6145 3.72815 31.4723 3.25509 31.2621 2.81259H42.3749C43.5379 2.81249 44.4844 3.75871 44.4843 4.92196V44.4843ZM34.4346 17.4659L31.6221 20.2784C31.3475 20.5531 30.9024 20.5531 30.6278 20.2784L29.2216 18.8722C28.947 18.5976 28.947 18.1525 29.2216 17.8779C29.4962 17.6032 29.9413 17.6032 30.2159 17.8779L31.125 18.7869L33.4403 16.4716C33.7149 16.197 34.16 16.197 34.4346 16.4716C34.7093 16.7462 34.7093 17.1913 34.4346 17.4659ZM31.125 24.4118L33.4402 22.0966C33.7148 21.822 34.1599 21.822 34.4347 22.0965C34.7094 22.3711 34.7094 22.8162 34.4347 23.0908L31.6222 25.9033C31.3476 26.1779 30.9025 26.1779 30.6279 25.9033L29.2216 24.4971C28.947 24.2225 28.947 23.7773 29.2216 23.5027C29.4962 23.2281 29.9414 23.2281 30.216 23.5027L31.125 24.4118ZM31.6221 31.5285L34.4346 28.716C34.7092 28.4413 34.7092 27.9962 34.4346 27.7216C34.16 27.447 33.7149 27.447 33.4403 27.7216L31.125 30.0369L30.2159 29.1278C29.9413 28.8532 29.4962 28.8532 29.2216 29.1278C28.947 29.4024 28.947 29.8475 29.2216 30.1221L30.6278 31.5285C30.9024 31.8031 31.3475 31.8031 31.6221 31.5285ZM26.9062 24.7032H18.375C18.1808 24.7031 18.0051 24.6244 17.8778 24.4972C17.7506 24.37 17.6719 24.1942 17.6719 24C17.6719 23.6117 17.9866 23.297 18.375 23.2969H26.9062C27.2945 23.297 27.6093 23.6117 27.6094 24C27.6094 24.3884 27.2947 24.7031 26.9062 24.7032ZM18.375 19.0781H26.9062C27.2947 19.078 27.6094 18.7633 27.6094 18.375C27.6093 17.9867 27.2946 17.6719 26.9062 17.6719H18.375C17.9866 17.6719 17.6719 17.9867 17.6719 18.375C17.672 18.5692 17.7506 18.7449 17.8778 18.8722C18.0051 18.9994 18.1808 19.078 18.375 19.0781ZM18.375 28.9219H26.9062C27.2946 28.922 27.6093 29.2367 27.6094 29.625C27.6094 30.0133 27.2947 30.3281 26.9062 30.3281H18.375C18.1808 30.3281 18.0051 30.2494 17.8778 30.1222C17.7506 29.9949 17.672 29.8192 17.6719 29.625C17.6719 29.2367 17.9866 28.9219 18.375 28.9219ZM28.922 4.92197C28.922 6.08503 27.9757 7.03125 26.8126 7.03134C26.2311 7.03125 25.7036 6.79472 25.3218 6.41278C24.9398 6.03075 24.7032 5.50341 24.7031 4.92188C24.7031 3.75872 25.6493 2.8125 26.8125 2.8125C27.9755 2.81259 28.9219 3.75872 28.922 4.92197ZM26.8125 4.21875C26.6247 4.21875 26.4482 4.29178 26.3153 4.42462C26.1825 4.55747 26.1094 4.73409 26.1095 4.92197C26.1094 5.10975 26.1825 5.28628 26.3153 5.41913C26.4482 5.55197 26.6248 5.62509 26.8126 5.625C27.0004 5.625 27.1768 5.55188 27.3097 5.41903C27.4425 5.28619 27.5156 5.10966 27.5156 4.92188C27.5156 4.73409 27.4425 4.55747 27.3097 4.42462C27.1769 4.29187 27.0003 4.21875 26.8125 4.21875Z" fill="#F175B9"/>
</svg>
