<svg width="48" height="48" viewBox="0 0 48 48" fill="none" xmlns="http://www.w3.org/2000/svg">
<g clip-path="url(#clip0_2004_314)">
<path fill-rule="evenodd" clip-rule="evenodd" d="M25.1999 35.9999H23.32C23.1999 35.9995 23.0847 35.9514 23 35.8664L22.2 35.0664C21.7338 34.5996 21.0717 34.3852 20.4205 34.4899C19.7691 34.5946 19.2077 35.0058 18.9113 35.5951L18.8657 35.6832C18.8005 35.8144 18.6761 35.9062 18.5315 35.9298C18.3868 35.9534 18.2397 35.906 18.1361 35.8023L17.4001 35.0663C16.9339 34.5995 16.2718 34.3851 15.6206 34.4898C14.9692 34.5945 14.4078 35.0057 14.1114 35.595L14.0658 35.6831C14.0006 35.8143 13.8761 35.9061 13.7316 35.9297C13.5869 35.9534 13.4398 35.9059 13.3362 35.8022C12.9509 35.4149 12.4266 35.198 11.8802 35.1998H7.59996C7.15811 35.1998 6.79999 35.558 6.79999 35.9998C6.79999 36.4415 7.15821 36.7997 7.59996 36.7997H11.8799C12 36.8002 12.1151 36.8483 12.1999 36.9333C12.6661 37.4001 13.3282 37.6145 13.9795 37.5098C14.6308 37.4051 15.1922 36.9939 15.4886 36.4046L15.5342 36.3165C15.5995 36.1853 15.7239 36.0935 15.8684 36.0699C16.0131 36.0463 16.1602 36.0937 16.2638 36.1974L16.9998 36.9334C17.466 37.4002 18.1281 37.6146 18.7794 37.5099C19.4307 37.4052 19.9921 36.994 20.2885 36.4047L20.3341 36.3166C20.3994 36.1854 20.5238 36.0936 20.6683 36.07C20.813 36.0464 20.9601 36.0938 21.0637 36.1975L21.8636 36.9974C22.249 37.3847 22.7733 37.6017 23.3197 37.5999H25.1996C25.6415 37.5999 25.9996 37.2418 25.9996 36.7999C25.9996 36.3581 25.6418 35.9999 25.1999 35.9999Z" fill="#F175B9"/>
<path d="M43.4508 18.509L42.9228 18.2418L43.1899 17.7146L44.1323 15.8514C44.8843 14.4482 44.3564 12.701 42.9531 11.949C41.5499 11.197 39.8028 11.7249 39.0507 13.1282V8.10092C39.0507 6.33364 37.618 4.90095 35.8507 4.90095H35.0508V2.50095C35.0508 1.17551 33.9762 0.100952 32.6508 0.100952C31.3253 0.100952 30.2508 1.17551 30.2508 2.50095V4.90095H27.0508V2.50095C27.0508 1.17551 25.9762 0.100952 24.6508 0.100952C23.3254 0.100952 22.2508 1.17551 22.2508 2.50095V4.90095H19.0508V2.50095C19.0508 1.17551 17.9763 0.100952 16.6508 0.100952C15.3254 0.100952 14.2508 1.17551 14.2508 2.50095V4.90095H11.0509V2.50095C11.0509 1.17551 9.97629 0.100952 8.65085 0.100952C7.32542 0.100952 6.25085 1.17551 6.25085 2.50095V4.90095H5.45088C3.6836 4.90095 2.25092 6.33364 2.25092 8.10092V44.9009C2.25092 46.6682 3.6836 48.1009 5.45088 48.1009H35.8509C37.6182 48.1009 39.0509 46.6682 39.0509 44.9009V25.8946L42.1981 19.6698L42.7261 19.937C43.0172 20.0849 43.1338 20.4405 42.9869 20.7321L40.7893 25.0786C40.5903 25.4727 40.7481 25.9535 41.1421 26.153C41.2535 26.2099 41.3769 26.2395 41.5021 26.2394C41.8043 26.2399 42.081 26.0699 42.2173 25.8002L44.4149 21.4537C44.9602 20.3743 44.529 19.0569 43.4508 18.509ZM33.3708 33.5873L31.0579 35.3009L31.0708 32.4209L39.1004 16.5449L40.2492 17.1257L41.398 17.7065L33.3708 33.5873ZM40.4028 13.9682C40.6376 13.5034 41.1293 13.2258 41.6487 13.265C42.168 13.3042 42.6124 13.6525 42.7748 14.1474C42.8829 14.4715 42.8564 14.8254 42.7012 15.1298L42.1196 16.2786L40.9708 15.701L39.8228 15.1203L40.4028 13.9682ZM31.8508 2.50095C31.8508 2.05911 32.2089 1.70098 32.6508 1.70098C33.0926 1.70098 33.4507 2.0592 33.4507 2.50095V8.90098C33.4507 9.34283 33.0926 9.70095 32.6508 9.70095C32.2089 9.70095 31.8508 9.34273 31.8508 8.90098V2.50095ZM23.8508 2.50095C23.8508 2.05911 24.2089 1.70098 24.6508 1.70098C25.0926 1.70098 25.4508 2.0592 25.4508 2.50095V8.90098C25.4508 9.34283 25.0925 9.70095 24.6508 9.70095C24.209 9.70095 23.8508 9.34273 23.8508 8.90098V2.50095ZM15.8508 2.50095C15.8508 2.05911 16.209 1.70098 16.6507 1.70098C17.0925 1.70098 17.4507 2.0592 17.4507 2.50095V8.90098C17.4507 9.34283 17.0925 9.70095 16.6507 9.70095C16.209 9.70095 15.8508 9.34273 15.8508 8.90098V2.50095ZM7.85079 2.50095C7.85079 2.05911 8.20901 1.70098 8.65076 1.70098C9.09251 1.70098 9.45073 2.0592 9.45073 2.50095V8.90098C9.45073 9.34283 9.09251 9.70095 8.65076 9.70095C8.20901 9.70095 7.85079 9.34273 7.85079 8.90098V2.50095ZM37.4508 44.901C37.4508 45.7847 36.7344 46.501 35.8507 46.501H5.45079C4.5671 46.501 3.85076 45.7847 3.85076 44.901V8.10092C3.85076 7.21723 4.5671 6.50089 5.45079 6.50089H6.25076V8.90089C6.25076 10.2263 7.32532 11.3009 8.65076 11.3009C9.9762 11.3009 11.0508 10.2263 11.0508 8.90089V6.50089H14.2507V8.90089C14.2507 10.2263 15.3253 11.3009 16.6507 11.3009C17.9762 11.3009 19.0507 10.2263 19.0507 8.90089V6.50089H22.2507V8.90089C22.2507 10.2263 23.3253 11.3009 24.6507 11.3009C25.9761 11.3009 27.0507 10.2263 27.0507 8.90089V6.50089H30.2507V8.90089C30.2507 10.2263 31.3252 11.3009 32.6507 11.3009C33.9761 11.3009 35.0507 10.2263 35.0507 8.90089V6.50089H35.8506C36.7343 6.50089 37.4507 7.21723 37.4507 8.10092V16.2609L29.5579 31.8729C29.5015 31.9835 29.472 32.1057 29.4714 32.2297L29.4548 36.101H27.8509C27.409 36.101 27.0509 36.4591 27.0509 36.9009C27.0509 37.3428 27.4091 37.7009 27.8509 37.7009H30.1877C30.1997 37.7009 30.2101 37.6945 30.2221 37.6937C30.2341 37.6928 30.2413 37.7009 30.2509 37.7009C30.4239 37.7009 30.5924 37.6447 30.7309 37.5409L34.4764 34.7569C34.577 34.683 34.6592 34.5869 34.7164 34.4761L37.4509 29.0609V44.901H37.4508Z" fill="#F175B9"/>
<path fill-rule="evenodd" clip-rule="evenodd" d="M7.59996 15.1999H34.7999C35.2418 15.1999 35.5999 14.8417 35.5999 14.3999C35.5999 13.9582 35.2418 13.6 34.7999 13.6H7.59996C7.15811 13.6 6.79999 13.9581 6.79999 14.3999C6.79999 14.8418 7.15811 15.1999 7.59996 15.1999Z" fill="#F175B9"/>
<path fill-rule="evenodd" clip-rule="evenodd" d="M7.59996 20.8H33.368C33.8098 20.8 34.168 20.4418 34.168 20C34.168 19.5583 33.8098 19.2001 33.368 19.2001H7.59996C7.15811 19.2001 6.79999 19.5582 6.79999 20C6.79999 20.4419 7.15811 20.8 7.59996 20.8Z" fill="#F175B9"/>
<path fill-rule="evenodd" clip-rule="evenodd" d="M7.59996 26.4H30.536C30.9778 26.4 31.336 26.0419 31.336 25.6C31.336 25.1582 30.9778 24.8 30.536 24.8H7.59996C7.15811 24.8 6.79999 25.1582 6.79999 25.6C6.79999 26.0419 7.15811 26.4 7.59996 26.4Z" fill="#F175B9"/>
<path fill-rule="evenodd" clip-rule="evenodd" d="M7.59996 32H27.704C28.1458 32 28.504 31.6418 28.504 31.2C28.504 30.7581 28.1458 30.4 27.704 30.4H7.59996C7.15811 30.4 6.79999 30.7581 6.79999 31.2C6.79999 31.6418 7.15811 32 7.59996 32Z" fill="#F175B9"/>
</g>
<defs>
<clipPath id="clip0_2004_314">
<rect width="48" height="48" fill="white"/>
</clipPath>
</defs>
</svg>
