<svg width="14" height="15" viewBox="0 0 14 15" fill="none" xmlns="http://www.w3.org/2000/svg">
<path d="M6.72187 1.23995C6.82298 0.989918 7.17698 0.989918 7.2781 1.23995L8.74836 4.87548C8.79133 4.98174 8.89111 5.05423 9.00545 5.06227L12.9174 5.33712C13.1864 5.35603 13.2958 5.6927 13.0893 5.86614L10.086 8.38787C9.99822 8.46158 9.96011 8.57887 9.9878 8.6901L10.9353 12.4955C11.0004 12.7572 10.714 12.9653 10.4852 12.8224L7.15888 10.7454C7.06165 10.6847 6.93832 10.6847 6.84109 10.7454L3.51472 12.8224C3.28595 12.9653 2.99956 12.7572 3.06472 12.4955L4.01217 8.6901C4.03986 8.57887 4.00175 8.46158 3.91396 8.38787L0.910708 5.86613C0.704158 5.6927 0.813551 5.35603 1.08259 5.33712L4.99452 5.06227C5.10886 5.05423 5.20864 4.98174 5.25161 4.87548L6.72187 1.23995Z" fill="#FBBA00"/>
</svg>
