<svg width="49" height="31" viewBox="0 0 49 31" fill="none" xmlns="http://www.w3.org/2000/svg">
<rect width="49" height="31" rx="3" fill="white" fill-opacity="0.9"/>
<path d="M18.5 26C24.0228 26 28.5 21.5228 28.5 16C28.5 10.4772 24.0228 6 18.5 6C12.9772 6 8.5 10.4772 8.5 16C8.5 21.5228 12.9772 26 18.5 26Z" fill="#EB001B"/>
<path d="M30.5 26C36.0228 26 40.5 21.5228 40.5 16C40.5 10.4772 36.0228 6 30.5 6C24.9772 6 20.5 10.4772 20.5 16C20.5 21.5228 24.9772 26 30.5 26Z" fill="#F79E1B"/>
<path d="M28.5 16C28.5 12.6316 26.9 9.68421 24.5 8C22.1 9.82456 20.5 12.7719 20.5 16C20.5 19.2281 22.1 22.3158 24.5 24C26.9 22.3158 28.5 19.3684 28.5 16Z" fill="#FF5F00"/>
</svg>
