<svg width="1440" height="193" viewBox="0 0 1440 193" fill="none" xmlns="http://www.w3.org/2000/svg">
<path d="M311.406 193C158.214 193 54.0024 102.726 0 135.5V0H1440V123C1331.01 123 1302.5 181 1127 181C991.994 181 932.71 135.5 717.238 135.5C501.765 135.5 464.597 193 311.406 193Z" fill="#327B7B"/>
<path d="M311.406 164.5C158.214 164.5 128.58 112 0 112V1.09487L1440 1V112C1331.01 112 1297.49 144 1110.5 144C990.992 144 932.71 125 717.238 125C501.765 125 464.597 164.5 311.406 164.5Z" fill="#1E6864"/>
</svg>
