<svg width="25" height="24" viewBox="0 0 25 24" fill="none" xmlns="http://www.w3.org/2000/svg">
<path d="M21.5711 4.5H3.57111C3.17342 4.50045 2.79215 4.65864 2.51095 4.93984C2.22974 5.22105 2.07156 5.60231 2.07111 6V9.06903C2.07106 9.07269 2.07056 9.07626 2.07056 9.07993C2.07056 9.08359 2.07106 9.08716 2.07111 9.09082V18C2.07156 18.3977 2.22974 18.779 2.51095 19.0602C2.79215 19.3414 3.17342 19.4995 3.57111 19.5H21.5711C21.9688 19.4995 22.3501 19.3414 22.6313 19.0602C22.9125 18.779 23.0707 18.3977 23.0711 18V6C23.0707 5.60231 22.9125 5.22105 22.6313 4.93984C22.3501 4.65864 21.9688 4.50045 21.5711 4.5ZM13.3206 16.5H11.8206C11.6216 16.5 11.4309 16.421 11.2902 16.2803C11.1496 16.1397 11.0706 15.9489 11.0706 15.75C11.0706 15.5511 11.1496 15.3603 11.2902 15.2197C11.4309 15.079 11.6216 15 11.8206 15H13.3206C13.5195 15 13.7102 15.079 13.8509 15.2197C13.9915 15.3603 14.0706 15.5511 14.0706 15.75C14.0706 15.9489 13.9915 16.1397 13.8509 16.2803C13.7102 16.421 13.5195 16.5 13.3206 16.5ZM19.3206 16.5H16.3206C16.1216 16.5 15.9309 16.421 15.7902 16.2803C15.6496 16.1397 15.5706 15.9489 15.5706 15.75C15.5706 15.5511 15.6496 15.3603 15.7902 15.2197C15.9309 15.079 16.1216 15 16.3206 15H19.3206C19.5195 15 19.7102 15.079 19.8509 15.2197C19.9915 15.3603 20.0706 15.5511 20.0706 15.75C20.0706 15.9489 19.9915 16.1397 19.8509 16.2803C19.7102 16.421 19.5195 16.5 19.3206 16.5ZM3.57111 8.32993V6H21.5711L21.5713 8.32993H3.57111Z" fill="#F175B9"/>
</svg>
