<svg width="16" height="15" viewBox="0 0 16 15" fill="none" xmlns="http://www.w3.org/2000/svg">
<path fill-rule="evenodd" clip-rule="evenodd" d="M13.9054 14.8684H2.09459C0.441461 14.8684 -0.55807 12.8579 0.333967 11.3269L6.2393 1.19068C7.06211 -0.221437 8.93788 -0.221437 9.76054 1.19068L15.666 11.3269C16.5581 12.8579 15.5585 14.8684 13.9054 14.8684ZM8.1221 9.81585H7.87769C7.7711 9.81585 7.68238 9.75467 7.67463 9.67557L7.15848 4.50486C7.14965 4.41711 7.2431 4.34216 7.36154 4.34216H8.63847C8.7569 4.34216 8.85036 4.41695 8.84153 4.50486L8.32537 9.67557C8.31741 9.75467 8.2289 9.81585 8.12231 9.81585H8.1221ZM8.84211 11.5001C8.84211 11.9651 8.46509 12.3422 8 12.3422C7.53492 12.3422 7.1579 11.9651 7.1579 11.5001C7.1579 11.035 7.53492 10.658 8 10.658C8.46509 10.658 8.84211 11.035 8.84211 11.5001Z" fill="#F175B9"/>
</svg>
