<svg width="120" height="24" viewBox="0 0 120 24" fill="none" xmlns="http://www.w3.org/2000/svg">
<path fill-rule="evenodd" clip-rule="evenodd" d="M9.27967 20.1033V21.2961V22.489H8.74989V22.1993C8.58185 22.4141 8.32688 22.549 7.98031 22.549C7.29708 22.549 6.76147 22.0251 6.76147 21.2961C6.76147 20.5678 7.29708 20.0433 7.98031 20.0433C8.32688 20.0433 8.58185 20.1782 8.74989 20.393V20.1033H9.27967ZM8.04626 20.5323C7.58766 20.5323 7.30702 20.8768 7.30702 21.2961C7.30702 21.7155 7.58766 22.0599 8.04626 22.0599C8.48443 22.0599 8.78024 21.7303 8.78024 21.2961C8.78024 20.862 8.48443 20.5323 8.04626 20.5323ZM27.1825 21.2961C27.1825 20.8768 27.4632 20.5323 27.9218 20.5323C28.3605 20.5323 28.6558 20.862 28.6558 21.2961C28.6558 21.7303 28.3605 22.0599 27.9218 22.0599C27.4632 22.0599 27.1825 21.7155 27.1825 21.2961ZM29.1558 19.1453V21.2961V22.489H28.6254V22.1993C28.4574 22.4141 28.2024 22.549 27.8558 22.549C27.1726 22.549 26.637 22.0251 26.637 21.2961C26.637 20.5678 27.1726 20.0433 27.8558 20.0433C28.2024 20.0433 28.4574 20.1782 28.6254 20.393V19.1453H29.1558ZM15.8558 20.5078C16.1971 20.5078 16.4165 20.7174 16.4725 21.0865H15.2082C15.2648 20.742 15.4783 20.5078 15.8558 20.5078ZM14.6527 21.2961C14.6527 20.5523 15.1521 20.0433 15.8663 20.0433C16.5489 20.0433 17.018 20.5523 17.0233 21.2961C17.0233 21.3658 17.018 21.431 17.0128 21.4955H15.2035C15.2799 21.9251 15.5909 22.0799 15.9322 22.0799C16.1767 22.0799 16.4369 21.9897 16.6411 21.8303L16.9008 22.2148C16.605 22.4593 16.2689 22.549 15.9019 22.549C15.1726 22.549 14.6527 22.0548 14.6527 21.2961ZM22.2635 21.2961C22.2635 20.8768 22.5441 20.5323 23.0027 20.5323C23.4409 20.5323 23.7367 20.862 23.7367 21.2961C23.7367 21.7303 23.4409 22.0599 23.0027 22.0599C22.5441 22.0599 22.2635 21.7155 22.2635 21.2961ZM24.2361 20.1033V21.2961V22.489H23.7063V22.1993C23.5377 22.4141 23.2833 22.549 22.9368 22.549C22.2535 22.549 21.7179 22.0251 21.7179 21.2961C21.7179 20.5678 22.2535 20.0433 22.9368 20.0433C23.2833 20.0433 23.5377 20.1782 23.7063 20.393V20.1033H24.2361ZM19.2714 21.2961C19.2714 22.02 19.786 22.549 20.5714 22.549C20.9384 22.549 21.1828 22.469 21.4477 22.2645L21.1933 21.8451C20.9944 21.9851 20.7855 22.0599 20.5556 22.0599C20.1326 22.0548 19.8216 21.7555 19.8216 21.2961C19.8216 20.8368 20.1326 20.5375 20.5556 20.5324C20.7855 20.5324 20.9944 20.6072 21.1933 20.7472L21.4477 20.3278C21.1828 20.1233 20.9384 20.0433 20.5714 20.0433C19.786 20.0433 19.2714 20.5723 19.2714 21.2961ZM25.4595 20.393C25.5971 20.1833 25.7961 20.0433 26.1018 20.0433C26.2092 20.0433 26.3621 20.0633 26.4793 20.1085L26.316 20.5975C26.2039 20.5523 26.0919 20.5375 25.9846 20.5375C25.638 20.5375 25.4647 20.7569 25.4647 21.1516V22.489H24.9343V20.1033H25.4595V20.393ZM11.9 20.293C11.6451 20.1285 11.2938 20.0433 10.9064 20.0433C10.2891 20.0433 9.89177 20.333 9.89177 20.8071C9.89177 21.1962 10.1876 21.4361 10.7325 21.5109L10.9828 21.5458C11.2734 21.5858 11.4105 21.6606 11.4105 21.7954C11.4105 21.98 11.2168 22.0851 10.8551 22.0851C10.4881 22.0851 10.2232 21.9702 10.0446 21.8354L9.79492 22.2393C10.0855 22.449 10.4525 22.549 10.8498 22.549C11.5535 22.549 11.9613 22.2245 11.9613 21.7703C11.9613 21.351 11.6404 21.1316 11.11 21.0568L10.8603 21.0214C10.631 20.9917 10.4472 20.9471 10.4472 20.7871C10.4472 20.6123 10.6205 20.5078 10.9111 20.5078C11.2221 20.5078 11.5231 20.6226 11.6707 20.7123L11.9 20.293ZM18.094 20.393C18.2311 20.1833 18.4301 20.0433 18.7358 20.0433C18.8432 20.0433 18.9961 20.0633 19.1133 20.1085L18.95 20.5975C18.8379 20.5523 18.7259 20.5375 18.6186 20.5375C18.272 20.5375 18.0987 20.7569 18.0987 21.1516V22.489H17.5689V20.1033H18.094V20.393ZM14.2145 20.1033H13.348V19.3795H12.8124V20.1033H12.3182V20.5775H12.8124V21.6658C12.8124 22.2193 13.0318 22.549 13.6584 22.549C13.8883 22.549 14.1532 22.4793 14.3213 22.3644L14.1684 21.92C14.0103 22.0097 13.837 22.0548 13.6993 22.0548C13.4344 22.0548 13.348 21.8948 13.348 21.6555V20.5775H14.2145V20.1033ZM6.29295 20.9916V22.489H5.75734V21.1613C5.75734 20.7569 5.58405 20.5323 5.22231 20.5323C4.87048 20.5323 4.62601 20.7523 4.62601 21.1665V22.489H4.0904V21.1613C4.0904 20.7569 3.91244 20.5323 3.56062 20.5323C3.19829 20.5323 2.96374 20.7523 2.96374 21.1665V22.489H2.42871L2.42871 20.1033H2.95907L2.95907 20.3975C3.15803 20.1182 3.41242 20.0433 3.67264 20.0433C4.04489 20.0433 4.30978 20.2033 4.47781 20.4678C4.70244 20.133 5.02335 20.0382 5.33433 20.0433C5.92595 20.0485 6.29295 20.4278 6.29295 20.9916Z" fill="#231F20"/>
<path d="M19.7537 16.0496H11.7241V1.9209H19.7537V16.0496Z" fill="#FF5F00"/>
<path d="M12.2335 8.98556C12.2335 6.11948 13.6041 3.56646 15.7384 1.92119C14.1776 0.718086 12.2079 -3.8147e-06 10.0672 -3.8147e-06C4.99924 -3.8147e-06 0.891113 4.02291 0.891113 8.98556C0.891113 13.9482 4.99924 17.9711 10.0672 17.9711C12.2079 17.9711 14.1776 17.253 15.7384 16.0499C13.6041 14.4047 12.2335 11.8516 12.2335 8.98556Z" fill="#EB001B"/>
<path d="M30.5861 8.98556C30.5861 13.9482 26.478 17.9711 21.4101 17.9711C19.2694 17.9711 17.2996 17.253 15.7383 16.0499C17.8732 14.4047 19.2437 11.8516 19.2437 8.98556C19.2437 6.11948 17.8732 3.56646 15.7383 1.92119C17.2996 0.718086 19.2694 -3.8147e-06 21.4101 -3.8147e-06C26.478 -3.8147e-06 30.5861 4.02291 30.5861 8.98556Z" fill="#F79E1B"/>
<path fill-rule="evenodd" clip-rule="evenodd" d="M54.1974 16.6747H51.3221L49.166 8.32859C49.0636 7.94466 48.8463 7.60525 48.5267 7.44528C47.729 7.04328 46.85 6.72334 45.8911 6.56198V6.24066H50.523C51.1623 6.24066 51.6417 6.72334 51.7216 7.28393L52.8404 13.3043L55.7143 6.24066H58.5097L54.1974 16.6747ZM60.1079 16.6747H57.3924L59.6284 6.24066H62.3439L60.1079 16.6747ZM65.8571 9.1312C65.937 8.56922 66.4165 8.2479 66.9758 8.2479C67.8548 8.16722 68.8123 8.32858 69.6114 8.72919L70.0909 6.48269C69.2918 6.16136 68.4128 6 67.6151 6C64.9795 6 63.0617 7.44528 63.0617 9.45114C63.0617 10.9771 64.4202 11.7783 65.3791 12.261C66.4165 12.7423 66.816 13.0636 66.7361 13.5449C66.7361 14.2669 65.937 14.5882 65.1393 14.5882C64.1804 14.5882 63.2215 14.3475 62.3439 13.9455L61.8645 16.1934C62.8234 16.5941 63.8608 16.7554 64.8197 16.7554C67.7749 16.8347 69.6114 15.3908 69.6114 13.2236C69.6114 10.4944 65.8571 10.3344 65.8571 9.1312V9.1312ZM79.115 16.6747L76.9589 6.24066H74.6429C74.1635 6.24066 73.684 6.56198 73.5242 7.04328L69.5316 16.6747H72.327L72.8849 15.1502H76.3196L76.6392 16.6747H79.115ZM75.0424 9.05056L75.84 12.983H73.604L75.0424 9.05056Z" fill="#172B85"/>
<path d="M109.016 16.5472H100.875V1.98047H109.016V16.5472Z" fill="#6C6BBD"/>
<path d="M101.392 9.26418C101.392 6.30924 102.781 3.67706 104.945 1.98079C103.363 0.740385 101.366 3.05176e-05 99.1951 3.05176e-05C94.0565 3.05176e-05 89.8911 4.14766 89.8911 9.26418C89.8911 14.3807 94.0565 18.5283 99.1951 18.5283C101.366 18.5283 103.363 17.788 104.945 16.5476C102.781 14.8513 101.392 12.2191 101.392 9.26418Z" fill="#EB001B"/>
<path d="M120 9.26418C120 14.3807 115.835 18.5283 110.696 18.5283C108.526 18.5283 106.528 17.788 104.945 16.5476C107.11 14.8513 108.5 12.2191 108.5 9.26418C108.5 6.30924 107.11 3.67706 104.945 1.98079C106.528 0.740385 108.526 3.05176e-05 110.696 3.05176e-05C115.835 3.05176e-05 120 4.14766 120 9.26418Z" fill="#0099DF"/>
<path d="M111.771 20.6633C111.879 20.6633 112.035 20.6839 112.154 20.7305L111.988 21.2346C111.875 21.1881 111.761 21.1728 111.652 21.1728C111.301 21.1728 111.125 21.399 111.125 21.8053V23.1848H110.587V20.7252H111.12V21.0238C111.259 20.8076 111.461 20.6633 111.771 20.6633Z" fill="#231F20"/>
<path d="M109.784 21.2141H108.906V22.3255C108.906 22.5723 108.994 22.7372 109.263 22.7372C109.402 22.7372 109.578 22.6906 109.738 22.5982L109.893 23.0558C109.722 23.1742 109.454 23.2466 109.221 23.2466C108.585 23.2466 108.363 22.9068 108.363 22.3355V21.2141H107.862V20.7252H108.363V19.979H108.906V20.7252H109.784V21.2141Z" fill="#231F20"/>
<path fill-rule="evenodd" clip-rule="evenodd" d="M103.572 20.6634C104.264 20.6634 104.74 21.1882 104.745 21.955C104.745 22.0263 104.74 22.0924 104.735 22.159L104.735 22.1606H102.9C102.978 22.6029 103.293 22.7625 103.639 22.7625C103.887 22.7625 104.151 22.6701 104.357 22.5051L104.621 22.9015C104.321 23.1536 103.981 23.2461 103.608 23.2461C102.869 23.2461 102.342 22.7366 102.342 21.955C102.342 21.1882 102.848 20.6634 103.572 20.6634ZM103.562 21.1416C103.179 21.1416 102.962 21.3837 102.905 21.7389H104.187C104.13 21.3578 103.908 21.1416 103.562 21.1416Z" fill="#231F20"/>
<path d="M107.107 21.3531C106.957 21.26 106.652 21.1416 106.337 21.1416C106.042 21.1416 105.867 21.25 105.867 21.4302C105.867 21.5945 106.052 21.6411 106.285 21.6717L106.538 21.7076C107.076 21.7854 107.401 22.0115 107.401 22.4439C107.401 22.9121 106.988 23.2466 106.275 23.2466C105.871 23.2466 105.499 23.1436 105.205 22.9274L105.458 22.5104C105.639 22.6494 105.908 22.7678 106.28 22.7678C106.647 22.7678 106.843 22.66 106.843 22.4692C106.843 22.3308 106.704 22.253 106.409 22.2124L106.156 22.1765C105.603 22.0987 105.303 21.8519 105.303 21.4508C105.303 20.962 105.706 20.6634 106.332 20.6634C106.724 20.6634 107.081 20.7511 107.339 20.9207L107.107 21.3531Z" fill="#231F20"/>
<path fill-rule="evenodd" clip-rule="evenodd" d="M114.268 20.7629C114.105 20.6964 113.927 20.6634 113.735 20.6634C113.544 20.6634 113.366 20.6964 113.203 20.7629C113.04 20.8289 112.899 20.9202 112.781 21.0362C112.663 21.1522 112.57 21.2895 112.503 21.4473C112.435 21.6058 112.401 21.7778 112.401 21.9633C112.401 22.1488 112.435 22.3208 112.503 22.4792C112.57 22.6371 112.663 22.7749 112.781 22.8909C112.899 23.007 113.04 23.0977 113.203 23.1642C113.366 23.2302 113.544 23.2632 113.735 23.2632C113.927 23.2632 114.105 23.2302 114.268 23.1642C114.431 23.0977 114.573 23.007 114.691 22.8909C114.811 22.7749 114.904 22.6371 114.971 22.4792C115.039 22.3208 115.072 22.1488 115.072 21.9633C115.072 21.7778 115.039 21.6058 114.971 21.4473C114.904 21.2895 114.811 21.1522 114.691 21.0362C114.573 20.9202 114.431 20.8289 114.268 20.7629ZM113.427 21.2294C113.522 21.1911 113.625 21.1716 113.735 21.1716C113.846 21.1716 113.949 21.1911 114.044 21.2294C114.139 21.2682 114.222 21.3224 114.291 21.3919C114.361 21.4614 114.416 21.5451 114.456 21.6422C114.496 21.7394 114.515 21.8466 114.515 21.9632C114.515 22.0804 114.496 22.187 114.456 22.2842C114.416 22.3814 114.361 22.4651 114.291 22.5346C114.222 22.6041 114.139 22.6582 114.044 22.6971C113.949 22.736 113.846 22.7548 113.735 22.7548C113.625 22.7548 113.522 22.736 113.427 22.6971C113.332 22.6582 113.25 22.6041 113.181 22.5346C113.112 22.4651 113.057 22.3814 113.018 22.2842C112.978 22.187 112.959 22.0804 112.959 21.9632C112.959 21.8466 112.978 21.7394 113.018 21.6422C113.057 21.5451 113.112 21.4614 113.181 21.3919C113.25 21.3224 113.332 21.2682 113.427 21.2294Z" fill="#231F20"/>
<path fill-rule="evenodd" clip-rule="evenodd" d="M101.765 20.7252V21.955V23.1848H101.227V22.8862C101.056 23.1077 100.799 23.2467 100.447 23.2467C99.7544 23.2467 99.2119 22.706 99.2119 21.955C99.2119 21.2035 99.7544 20.6634 100.447 20.6634C100.799 20.6634 101.056 20.8024 101.227 21.0238V20.7252H101.765ZM100.514 21.1675C100.049 21.1675 99.7644 21.5227 99.7644 21.955C99.7644 22.3873 100.049 22.7419 100.514 22.7419C100.958 22.7419 101.258 22.4026 101.258 21.955C101.258 21.5074 100.958 21.1675 100.514 21.1675Z" fill="#231F20"/>
<path d="M98.7364 23.1848V21.641C98.7364 21.0597 98.3643 20.6686 97.765 20.6633C97.4497 20.658 97.1237 20.7558 96.8965 21.1009C96.7261 20.8282 96.457 20.6633 96.0795 20.6633C95.8163 20.6633 95.5577 20.7405 95.356 21.0285V20.7252H94.8188V23.1848H95.3613V21.8213C95.3613 21.3942 95.5992 21.1675 95.9659 21.1675C96.3227 21.1675 96.5037 21.399 96.5037 21.816V23.1848H97.0462V21.8213C97.0462 21.3942 97.2947 21.1675 97.6508 21.1675C98.0182 21.1675 98.1939 21.399 98.1939 21.816V23.1848H98.7364V23.1848Z" fill="#231F20"/>
</svg>
