<svg width="50" height="31" viewBox="0 0 50 31" fill="none" xmlns="http://www.w3.org/2000/svg">
<rect width="50" height="31" rx="3" fill="white" fill-opacity="0.9"/>
<path d="M39.4046 12.8875H38.9809C38.416 14.2625 37.9924 14.95 37.5687 17.0125H40.2519C39.8282 14.95 39.8282 13.9875 39.4046 12.8875ZM43.5 21H41.0992C40.958 21 40.958 21 40.8168 20.8625L40.5344 19.625L40.3931 19.35H37.0038C36.8626 19.35 36.7214 19.35 36.7214 19.625L36.2977 20.8625C36.2977 21 36.1565 21 36.1565 21H33.1908L33.4733 20.3125L37.5687 10.9625C37.5687 10.275 37.9924 10 38.6985 10H40.8168C40.958 10 41.0992 10 41.0992 10.275L43.0763 19.2125C43.2176 19.7625 43.3588 20.175 43.3588 20.725C43.5 20.8625 43.5 20.8625 43.5 21ZM24.5763 20.5875L25.1412 18.1125C25.2824 18.1125 25.4237 18.25 25.4237 18.25C26.4122 18.6625 27.4008 18.9375 28.3893 18.8C28.6718 18.8 29.0954 18.6625 29.3779 18.525C30.084 18.25 30.084 17.5625 29.5191 17.0125C29.2366 16.7375 28.813 16.6 28.3893 16.325C27.8244 16.05 27.2595 15.775 26.8359 15.3625C25.1412 13.9875 25.7061 12.0625 26.6947 11.1C27.542 10.55 27.9656 10 29.0954 10C30.7901 10 32.626 10 33.4733 10.275H33.6145C33.4733 11.1 33.3321 11.7875 33.0496 12.6125C32.3435 12.3375 31.6374 12.0625 30.9313 12.0625C30.5076 12.0625 30.084 12.0625 29.6603 12.2C29.3779 12.2 29.2366 12.3375 29.0954 12.475C28.813 12.75 28.813 13.1625 29.0954 13.4375L29.8015 13.9875C30.3664 14.2625 30.9313 14.5375 31.355 14.8125C32.0611 15.225 32.7672 15.9125 32.9084 16.7375C33.1908 17.975 32.7672 19.075 31.6374 19.9C30.9313 20.45 30.6489 20.725 29.6603 20.725C27.6832 20.725 26.1298 20.8625 24.8588 20.45C24.7176 20.725 24.7176 20.725 24.5763 20.5875ZM19.6336 21C19.7748 20.0375 19.7748 20.0375 19.916 19.625C20.6221 16.6 21.3282 13.4375 21.8931 10.4125C22.0344 10.1375 22.0344 10 22.3168 10H24.8588C24.5763 11.65 24.2939 12.8875 23.8702 14.4C23.4466 16.4625 23.0229 18.525 22.458 20.5875C22.458 20.8625 22.3168 20.8625 22.0344 20.8625L19.6336 21ZM6.5 10.275C6.5 10.1375 6.78244 10 6.92366 10H11.7252C12.4313 10 12.9962 10.4125 13.1374 11.1L14.4084 17.15C14.4084 17.2875 14.4084 17.2875 14.5496 17.425C14.5496 17.2875 14.6908 17.2875 14.6908 17.2875L17.6565 10.275C17.5153 10.1375 17.6565 10 17.7977 10H20.7634C20.7634 10.1375 20.7634 10.1375 20.6221 10.275L16.2443 20.3125C16.1031 20.5875 16.1031 20.725 15.9618 20.8625C15.8206 21 15.5382 20.8625 15.2557 20.8625H13.1374C12.9962 20.8625 12.855 20.8625 12.855 20.5875L10.5954 12.0625C10.313 11.7875 9.88931 11.375 9.32443 11.2375C8.4771 10.825 6.92366 10.55 6.64122 10.55L6.5 10.275Z" fill="#142688"/>
</svg>
